<mxfile host="app.diagrams.net" modified="2023-11-02T19:34:01.204Z" agent="Mozilla/5.0 (Macintosh; Intel Mac OS X 10.15; rv:109.0) Gecko/20100101 Firefox/119.0" version="22.0.8" etag="qEQWq-ho1LJkPVvlgD1b" type="github">
  <diagram name="Page-1" id="anF8upcTRb2Of2Klj4OK">
    <mxGraphModel>
      <root>
        <mxCell id="0" />
        <mxCell id="1" parent="0" />
      </root>
    </mxGraphModel>
  </diagram>
</mxfile>
